<svg xmlns="http://www.w3.org/2000/svg" viewBox="0 0 44.88 44.88"><defs><style>.cls-1{fill:#000;}</style></defs><g id="Layer_2" data-name="Layer 2"><g id="Layer_1-2" data-name="Layer 1"><path class="cls-1" d="M22.44,44.88A22.44,22.44,0,1,1,44.88,22.44,22.47,22.47,0,0,1,22.44,44.88Zm0-42.12A19.68,19.68,0,1,0,42.11,22.44,19.7,19.7,0,0,0,22.44,2.76Z"/><path class="cls-1" d="M25.9,23.28c-1.9,1.55-2.17,2.1-2.17,4,0,.1,0,.51,0,.79H20.59v-.69c0-3.65.14-3.89,2.9-6.27A4.9,4.9,0,0,0,25.55,17c0-2.07-1-3.24-3-3.24-2.2,0-3.24,1.48-3.48,4.79l-3.27-.65c.42-4.76,2.72-7.13,7-7.13s6.58,2.37,6.58,6.33C29.38,19.59,28.52,21.14,25.9,23.28ZM20.28,34.16V30H24v4.13Z"/></g></g></svg>