<svg xmlns="http://www.w3.org/2000/svg" viewBox="0 0 158.95 38.38"><g id="Layer_2" data-name="Layer 2"><g id="Layer_2-2" data-name="Layer 2"><path d="M13.8,38.11H11.33L8.71,25.9,6.12,38.11H3.59L0,21.44H2.8L5,33.89,7.66,21.44H10l2.6,12.48L15,21.44h2.32Z"/><path d="M23.43,38.08V26.39h2.75V38.08Z"/><path d="M42.9,38.08l-1-4.16H37l-1,4.16H33.34l4.81-16.64h3.1l4.44,16.64ZM39.43,24.13l-1.9,7.61H41.3Z"/><path d="M54,30.2c-1.37,1.12-1.57,1.52-1.57,2.87,0,.07,0,.37,0,.57H50.16v-.5c0-2.64.1-2.82,2.1-4.54a3.56,3.56,0,0,0,1.49-2.94c0-1.5-.75-2.35-2.14-2.35-1.6,0-2.35,1.07-2.52,3.47l-2.37-.48q.44-5.16,5-5.16c3,0,4.76,1.72,4.76,4.59C56.52,27.53,55.9,28.65,54,30.2Z"/><path d="M65,38.08V21.44h2.75V38.08Z"/><path d="M79.31,38.08,73.17,24.76V38.08H70.88V21.44h3.24l5.47,12v-12h2.29V38.08Z"/><path d="M89.69,38.38c-3.09,0-5-1.54-5.71-4.64l2.44-.7c.45,2.05,1.55,3.07,3.32,3.07s2.75-.9,2.75-2.39c0-1.25-.7-1.93-2.82-2.72-2.3-.85-2.75-1.1-3.52-1.78a4.43,4.43,0,0,1-1.5-3.39c0-2.72,2.1-4.69,5.07-4.69,2.72,0,4.29,1.22,5.16,4L92.54,26c-.63-1.87-1.42-2.57-2.92-2.57a2.1,2.1,0,0,0-2.27,2.07c0,1.27.6,1.75,3.32,2.8A9.53,9.53,0,0,1,93.84,30a4.5,4.5,0,0,1,1.47,3.32C95.31,36.36,93.09,38.38,89.69,38.38Z"/><path d="M103.06,23.78v14.3h-2.74V23.78H96.65V21.44h10.16v2.34Z"/><path d="M107.77,38.08V25.78h2.55v12.3Z"/><path d="M117.75,23.78v14.3H115V23.78H102.42V21.44h19.07v2.34Z"/><path d="M135.11,31.57c0,3-.25,4.24-1.17,5.27a5.38,5.38,0,0,1-4.15,1.54c-2.17,0-3.69-.65-4.51-2-.58-.92-.83-2.22-.83-4.64V21.44h2.7V31.77c0,2,.12,2.74.52,3.34a2.47,2.47,0,0,0,2.32,1,2.29,2.29,0,0,0,2.35-1.37,7.58,7.58,0,0,0,.3-3V21.44h2.47Z"/><path d="M143.49,23.78v14.3h-2.75V23.78h-3.67V21.44h10.16v2.34Z"/><path d="M149.32,38.08V21.44h9.53v2.19h-6.78v4.8h5.31v2.19h-5.31v5.22H159v2.24Z"/><circle cx="51.63" cy="36.42" r="1.34"/><circle cx="30" cy="36.42" r="1.34"/><circle cx="18.65" cy="36.42" r="1.34"/><circle cx="24.81" cy="22.64" r="1.5"/><path d="M7,12.61,6.27,9.54H2.68l-.75,3.07H0L3.55.35H5.83L9.1,12.61ZM4.49,2.33,3.09,7.94H5.87Z"/><path d="M17.62,12.78a2.23,2.23,0,0,1-2.08-1.1v4H13.68V3.55h1.73V5c.57-1.2,1.18-1.66,2.28-1.66,1.86,0,3,1.77,3,4.62S19.51,12.78,17.62,12.78Zm-.46-8c-.59,0-1,.37-1.36,1.07a2.79,2.79,0,0,0-.26,1.49V8.83c0,1.12.05,1.43.42,1.93a1.37,1.37,0,0,0,1.14.6c1.12,0,1.62-1,1.62-3.36C18.72,5.85,18.2,4.76,17.16,4.76Z"/><path d="M26.72,5.33a1,1,0,0,0-.37,0c-1.32,0-2,.93-2,2.7v4.61H22.47V3.55h1.66v2c.49-1.49,1.25-2.22,2.24-2.22a.86.86,0,0,1,.35,0Z"/><path d="M30.64,12.83c-2.38,0-3.59-1.6-3.59-4.76s1.21-4.74,3.59-4.74S34.18,5,34.18,8.07,33,12.83,30.64,12.83Zm0-8.09c-1.11,0-1.58,1-1.58,3.35s.47,3.33,1.58,3.33,1.58-1.05,1.58-3.35S31.72,4.74,30.62,4.74Z"/><path d="M37.86,12.28c0,1.64-.09,2.21-.4,2.69a2.15,2.15,0,0,1-1.93.9,5.92,5.92,0,0,1-1.14-.13V14.18a2.54,2.54,0,0,0,.7.09.75.75,0,0,0,.84-.61,4.81,4.81,0,0,0,.06-1.4V3.55h1.87ZM36,2.33v-2h2v2Z"/><path d="M41.5,8.37c0,2.15.54,3.05,1.71,3.05.94,0,1.36-.44,1.64-1.67l1.71.22q-.69,2.87-3.31,2.86c-2.37,0-3.66-1.61-3.66-4.61S41,3.33,43.18,3.33A3,3,0,0,1,46,4.91a7,7,0,0,1,.66,3.46ZM44.72,7.1c0-1.6-.53-2.39-1.6-2.39s-1.45.84-1.58,2.39Z"/><path d="M54.47,9.49c-.35,2.33-1.31,3.34-3.24,3.34q-3.49,0-3.49-4.74C47.74,5,49,3.33,51.23,3.33c2,0,2.89.94,3.24,3.27l-1.8.18c-.21-1.48-.52-2-1.42-2-1.1,0-1.54,1-1.54,3.45,0,2,.51,3,1.56,3,.88,0,1.25-.5,1.4-2Z"/><path d="M59.75,12.69a5.51,5.51,0,0,1-1.38.14,2.16,2.16,0,0,1-2.17-1.06,5.69,5.69,0,0,1-.32-2.58V5.06H54.71V3.55h1.23L56,1.18,57.72,1V3.55h1.73V5.06H57.72v4c0,1.24,0,1.42.17,1.71s.51.48,1.1.48a4.48,4.48,0,0,0,.76-.05Z"/><path d="M67.28,12.83c-2.37,0-3.58-1.6-3.58-4.76s1.21-4.74,3.58-4.74S70.83,5,70.83,8.07,69.62,12.83,67.28,12.83Zm0-8.09c-1.11,0-1.59,1-1.59,3.35s.48,3.33,1.59,3.33,1.58-1.05,1.58-3.35S68.37,4.74,67.27,4.74Z"/><path d="M76.61,1.6a2.81,2.81,0,0,0-.68-.07c-1,0-1.23.35-1.23,1.54v.48h1.63V5.06H74.7v7.55H72.88V5.06h-1.2V3.55h1.2c0-1.62.14-2.13.53-2.67A2.27,2.27,0,0,1,75.52,0a4.48,4.48,0,0,1,1.09.11Z"/><path d="M84.79,12.69a5.51,5.51,0,0,1-1.38.14,2.17,2.17,0,0,1-2.17-1.06,5.74,5.74,0,0,1-.31-2.58V5.06H79.75V3.55H81l.1-2.37L82.77,1V3.55H84.5V5.06H82.77v4c0,1.24,0,1.42.16,1.71s.52.48,1.11.48a4.38,4.38,0,0,0,.75-.05Z"/><path d="M90.18,12.61V6.9c0-1.57-.26-2.06-1.09-2.06-1,0-1.47.8-1.47,2.59v5.18H85.75V.35h1.87V4.74a2.09,2.09,0,0,1,2.12-1.41,2,2,0,0,1,2.07,1.23,5.75,5.75,0,0,1,.24,2.34v5.71Z"/><path d="M95.68,8.37c0,2.15.53,3.05,1.71,3.05.93,0,1.36-.44,1.63-1.67l1.71.22q-.69,2.87-3.31,2.86c-2.37,0-3.66-1.61-3.66-4.61s1.38-4.89,3.59-4.89a3,3,0,0,1,2.79,1.58,7,7,0,0,1,.67,3.46ZM98.89,7.1c0-1.6-.53-2.39-1.6-2.39s-1.45.84-1.58,2.39Z"/></g></g></svg>