<svg xmlns="http://www.w3.org/2000/svg" viewBox="0 0 761.41 79.33"><defs><style>.cls-1{fill:#000;}</style></defs><g id="Layer_2" data-name="Layer 2"><g id="Layer_1-2" data-name="Layer 1"><path class="cls-1" d="M63.49,78.07H52.12l-12-56.14L28.13,78.07H16.53L0,1.38H12.86L23.19,58.67,35.25,1.38h10.9l11.94,57.4L69,1.38H79.67Z"/><path class="cls-1" d="M107.79,78V24.18h12.63V78Z"/><path class="cls-1" d="M197.32,78,192.5,58.78H170.11L165.41,78H153.35L175.51,1.38h14.23L210.18,78Zm-16-64.17-8.72,35H190Z"/><path class="cls-1" d="M248.41,41.68c-6.32,5.16-7.24,7-7.24,13.2,0,.34.12,1.72.12,2.64H230.73v-2.3c0-12.17.46-13,9.64-20.89,4.94-4.13,6.89-8.15,6.89-13.55,0-6.88-3.44-10.79-9.87-10.79-7.35,0-10.8,4.94-11.6,16l-10.9-2.18C216.26,7.92,224,0,238.07,0,251.74,0,260,7.92,260,21.13,260,29.39,257.13,34.56,248.41,41.68Z"/><path class="cls-1" d="M299.05,78V1.38h12.62V78Z"/><path class="cls-1" d="M364.83,78l-28.24-61.3V78H326V1.38H341L366.09,56.6V1.38h10.56V78Z"/><path class="cls-1" d="M412.58,79.33c-14.23,0-23-7.12-26.29-21.35l11.25-3.22c2.07,9.42,7.12,14.13,15.27,14.13,7.81,0,12.63-4.14,12.63-11,0-5.73-3.21-8.84-13-12.51-10.56-3.9-12.63-5.05-16.19-8.15a20.49,20.49,0,0,1-6.89-15.62C389.39,9.08,399,0,412.7,0c12.51,0,19.74,5.63,23.76,18.48l-10.79,3.79c-2.87-8.61-6.54-11.82-13.43-11.82-6.09,0-10.45,4-10.45,9.53,0,5.86,2.75,8,15.27,12.85,7.46,2.88,11.25,4.71,14.58,7.7a20.63,20.63,0,0,1,6.77,15.27C438.41,70,428.2,79.33,412.58,79.33Z"/><path class="cls-1" d="M474.08,12.17V78H461.45V12.17H444.57V1.38H491.3V12.17Z"/><path class="cls-1" d="M495.74,78V21.36h11.71V78Z"/><path class="cls-1" d="M541.63,12.17V78H529V12.17H471.12V1.38h87.73V12.17Z"/><path class="cls-1" d="M621.5,48c0,14-1.15,19.52-5.4,24.22S605.66,79.33,597,79.33c-10,0-17-3-20.77-9.07-2.65-4.25-3.79-10.21-3.79-21.35V1.38h12.39V48.91c0,9.07.58,12.62,2.42,15.38,2.18,3.22,5.28,4.6,10.67,4.6s9-2.07,10.79-6.32c1.15-2.64,1.38-5.51,1.38-13.89V1.38H621.5Z"/><path class="cls-1" d="M660,12.17V78H647.41V12.17H630.53V1.38h46.73V12.17Z"/><path class="cls-1" d="M686.87,78V1.38h43.85V11.49H699.49v22H724V43.63H699.49v24h31.69V78Z"/><circle class="cls-1" cx="237.51" cy="70.3" r="6.15"/><circle class="cls-1" cx="138.01" cy="70.3" r="6.15"/><circle class="cls-1" cx="85.81" cy="70.3" r="6.15"/><circle class="cls-1" cx="114.1" cy="6.9" r="6.9"/><path class="cls-1" d="M748.29,2.49v8.87h-2V2.49h-2.32V.86h6.74V2.49Zm11.22,8.87V2.55l-2.41,8.81h-1.63l-2.26-8.84v8.84h-1.72V.86h3l1.94,7.54,2-7.54h2.93v10.5Z"/></g></g></svg>